<mxfile host="app.diagrams.net" modified="2023-05-12T15:45:07.495Z" agent="Mozilla/5.0 (X11; Linux x86_64) AppleWebKit/537.36 (KHTML, like Gecko) Chrome/113.0.0.0 Safari/537.36" version="21.2.9" etag="3h7ArUShrQle_am0EPuU" type="github">
  <diagram name="Page-1" id="wOCMjWOf97wabXltDMCH">
    <mxGraphModel>
      <root>
        <mxCell id="0" />
        <mxCell id="1" parent="0" />
      </root>
    </mxGraphModel>
  </diagram>
</mxfile>
